#!OML:ASF X:\für Bonn\!DataBase\2005_08_12_Daniel\c3d\Daniel.ASF
:FULLY-SPECIFIED
:DEGREES
31
root 2.42427 17.059 -23.0912 171.922 182.627 -186.46
lowerback 14.6291 0.239942 6.59724
upperback 5.77632 1.17619 -0.964123
thorax -1.90626 0.674828 -4.93345
lowerneck 5.17032 1.50329 -2.49561
upperneck 25.0611 2.23179 -0.48497
head 6.7972 0.811461 0.359242
rclavicle 1.41137e-014 -1.03368e-014
rhumerus -14.3236 -25.4391 -80.6236
rradius 14.2037
rwrist 39.4514
rhand -22.0365 18.4531
rfingers 7.12502
rthumb 4.37357 -11.4818
lclavicle 1.41137e-014 -1.03368e-014
lhumerus -34.3846 39.0611 69.3145
lradius 20.0494
lwrist -36.6944
lhand -10.0541 -6.98479
lfingers 7.12502
lthumb 15.9315 22.38
rfemur 34.0766 2.16918 28.2383
rtibia -6.04305e-014
rfoot -15.5071 1.96459
rtoes -7.48737
lfemur -26.6656 -12.4949 -7.91862
ltibia 31.9579
lfoot -6.25925 11.5001
ltoes -4.09712
32
root 2.45224 17.0443 -22.9604 171.704 182.585 -186.301
lowerback 14.9804 0.268985 6.19238
upperback 5.95918 1.1748 -1.02625
thorax -1.91115 0.674319 -4.77471
lowerneck 5.31734 1.47114 -2.26385
upperneck 24.8154 2.20343 -0.634396
head 6.69552 0.811279 0.267329
rclavicle 1.68967e-014 1.03368e-014
rhumerus -14.1807 -25.2968 -80.8957
rradius 14.157
rwrist 39.0469
rhand -22.0204 18.3229
rfingers 7.12502
rthumb 4.38906 -11.6116
lclavicle 1.68967e-014 1.03368e-014
lhumerus -34.5876 40.0865 68.7977
lradius 19.7264
lwrist -37.6038
lhand -10.1 -6.82801
lfingers 7.12502
lthumb 15.8873 22.5403
rfemur 34.6367 1.97263 27.8139
rtibia 4.77083e-014
rfoot -14.4115 2.04499
rtoes -7.17585
lfemur -26.5308 -11.649 -8.48107
ltibia 32.7397
lfoot -5.61352 10.6447
ltoes -4.99886
33
root 2.47885 17.032 -22.8268 171.477 182.547 -186.118
lowerback 15.3146 0.309355 5.75234
upperback 6.16337 1.1795 -1.08181
thorax -1.88417 0.677366 -4.58915
lowerneck 5.39434 1.44886 -2.14877
upperneck 24.6142 2.1763 -0.695696
head 6.61823 0.806727 0.225072
rclavicle 1.27222e-014 -1.59028e-015
rhumerus -14.0515 -25.1132 -81.1609
rradius 14.1504
rwrist 38.5479
rhand -21.9433 18.2325
rfingers 7.12502
rthumb 4.46351 -11.7004
lclavicle 1.27222e-014 -1.59028e-015
lhumerus -34.7943 40.91 68.4053
lradius 19.4941
lwrist -38.3083
lhand -10.2043 -6.67389
lfingers 7.12502
lthumb 15.7869 22.7024
rfemur 32.617 1.73733 27.3408
rtibia 4.71193
rfoot -15.2735 2.59253
rtoes -7.04036
lfemur -26.3808 -10.884 -9.04757
ltibia 33.5222
lfoot -5.09387 9.86493
ltoes -6.20009
34
root 2.50481 17.0222 -22.6936 171.247 182.445 -185.924
lowerback 15.65 0.332677 5.29576
upperback 6.38842 1.15707 -1.12744
thorax -1.83883 0.666879 -4.3789
lowerneck 5.49959 1.42386 -2.01928
upperneck 24.3469 2.15797 -0.832728
head 6.51582 0.803441 0.155823
rclavicle 9.14409e-015 -8.74653e-015
rhumerus -13.873 -24.7268 -81.4464
rradius 14.1205
rwrist 37.8842
rhand -21.8778 18.1069
rfingers 7.12502
rthumb 4.52674 -11.8247
lclavicle 9.14409e-015 -8.74653e-015
lhumerus -34.9566 41.6614 68.1154
lradius 19.329
lwrist -38.8522
lhand -10.2466 -6.60247
lfingers 7.12502
lthumb 15.7462 22.777
rfemur 29.97 1.43916 26.8028
rtibia 10.5139
rfoot -16.4444 3.25333
rtoes -7.01411
lfemur -26.216 -10.272 -9.59086
ltibia 34.2533
lfoot -4.69701 9.1293
ltoes -6.98423
35
root 2.5311 17.0153 -22.5623 171.035 182.331 -185.71
lowerback 15.9889 0.362594 4.89009
upperback 6.61528 1.14742 -1.21048
thorax -1.78831 0.663426 -4.23935
lowerneck 5.57253 1.39038 -1.96194
upperneck 24.1135 2.10715 -0.84664
head 6.42801 0.786232 0.138067
rclavicle -1.59028e-015 -4.77083e-015
rhumerus -13.755 -24.0308 -81.7953
rradius 14.2214
rwrist 36.8249
rhand -21.7472 17.8842
rfingers 7.12502
rthumb 4.65287 -12.0447
lclavicle -1.59028e-015 -4.77083e-015
lhumerus -35.003 42.1593 67.9505
lradius 19.2045
lwrist -39.1762
lhand -10.2772 -6.56669
lfingers 7.12502
lthumb 15.7167 22.8151
rfemur 28.1246 0.743306 25.9676
rtibia 14.7192
rfoot -16.6089 4.10972
rtoes -7.30305
lfemur -26.0256 -9.70118 -10.1451
ltibia 34.9143
lfoot -4.36253 8.43322
ltoes -7.9598
36
root 2.55768 17.011 -22.4357 170.827 182.206 -185.349
lowerback 16.3861 0.399617 4.33982
upperback 6.83329 1.1253 -1.31207
thorax -1.78196 0.649411 -4.0365
lowerneck 5.60941 1.38328 -2.00379
upperneck 23.8973 2.09416 -0.858786
head 6.35119 0.778533 0.139581
rclavicle 2.3059e-014 -1.19271e-014
rhumerus -13.6524 -23.4379 -82.1047
rradius 14.3098
rwrist 35.9473
rhand -21.6498 17.6774
rfingers 7.12502
rthumb 4.74689 -12.2494
lclavicle 2.3059e-014 -1.19271e-014
lhumerus -35.0269 42.4383 67.9532
lradius 19.2043
lwrist -39.2668
lhand -10.352 -6.67083
lfingers 7.12502
lthumb 15.6447 22.7166
rfemur 26.461 0.0110546 24.8989
rtibia 18.5137
rfoot -16.3147 4.98807
rtoes -7.41072
lfemur -25.7747 -9.19947 -10.8506
ltibia 35.5031
lfoot -4.13326 7.78652
ltoes -8.63872
37
root 2.58469 17.0103 -22.3231 170.692 182.083 -184.967
lowerback 16.8585 0.443416 3.81898
upperback 7.00393 1.11524 -1.43293
thorax -1.86123 0.638472 -3.87528
lowerneck 5.68085 1.37906 -2.12249
upperneck 23.669 2.06908 -0.788788
head 6.26345 0.764504 0.179782
rclavicle -1.23246e-014 -1.11319e-014
rhumerus -13.5685 -22.7042 -82.4197
rradius 14.4319
rwrist 34.9291
rhand -21.4814 17.4327
rfingers 7.12502
rthumb 4.90952 -12.4905
lclavicle -1.23246e-014 -1.11319e-014
lhumerus -34.8348 42.2886 68.2281
lradius 19.2508
lwrist -38.9146
lhand -10.3733 -6.85103
lfingers 7.12502
lthumb 15.6242 22.538
rfemur 24.7278 -0.63082 23.8502
rtibia 22.1448
rfoot -15.6516 5.66479
rtoes -7.67843
lfemur -25.5934 -8.70914 -11.5422
ltibia 36.0343
lfoot -3.989 7.17125
ltoes -8.82518
38
root 2.61277 17.0132 -22.2117 170.576 182.016 -184.656
lowerback 17.3342 0.487904 3.40616
upperback 7.18485 1.11897 -1.52909
thorax -1.926 0.636156 -3.75176
lowerneck 5.73382 1.38578 -2.33041
upperneck 23.3975 2.05562 -0.700849
head 6.16413 0.750551 0.241144
rclavicle 7.95139e-015 -9.54166e-015
rhumerus -13.4809 -22.2509 -82.6952
rradius 14.5629
rwrist 34.3026
rhand -21.396 17.2598
rfingers 7.12502
rthumb 4.99199 -12.6614
lclavicle 7.95139e-015 -9.54166e-015
lhumerus -34.4923 41.866 68.7466
lradius 19.3997
lwrist -38.3147
lhand -10.363 -7.01127
lfingers 7.12502
lthumb 15.6341 22.377
rfemur 22.9913 -1.15253 22.9423
rtibia 25.6936
rfoot -14.6514 6.10658
rtoes -8.11154
lfemur -25.3788 -8.23823 -12.1327
ltibia 36.5243
lfoot -3.95289 6.59579
ltoes -8.32186
39
root 2.64343 17.0169 -22.1038 170.501 181.974 -184.366
lowerback 17.8094 0.526042 3.0452
upperback 7.33908 1.11878 -1.62798
thorax -2.01631 0.631628 -3.66046
lowerneck 5.77939 1.40024 -2.52883
upperneck 23.1949 2.05795 -0.634391
head 6.08888 0.74272 0.294755
rclavicle -2.5842e-014 2.06736e-014
rhumerus -13.4054 -22.0065 -82.9392
rradius 14.6573
rwrist 34.0067
rhand -21.3228 17.074
rfingers 7.12502
rthumb 5.06263 -12.8455
lclavicle -2.5842e-014 2.06736e-014
lhumerus -34.0665 41.2632 69.3716
lradius 19.5806
lwrist -37.4842
lhand -10.3519 -7.22135
lfingers 7.12502
lthumb 15.6447 22.1661
rfemur 21.2028 -1.61236 22.0768
rtibia 29.1653
rfoot -13.4685 6.43117
rtoes -8.66952
lfemur -25.194 -7.81033 -12.6803
ltibia 36.9744
lfoot -4.00205 6.11986
ltoes -7.48
40
root 2.67649 17.0222 -21.9992 170.419 182.042 -184.074
lowerback 18.3217 0.599247 2.72609
upperback 7.50356 1.168 -1.73112
thorax -2.10812 0.652419 -3.60801
lowerneck 5.71282 1.41972 -2.74897
upperneck 23.1162 2.06902 -0.540767
head 6.0716 0.737129 0.362534
rclavicle 1.03368e-014 -1.74931e-014
rhumerus -13.3109 -21.5729 -83.1947
rradius 14.7807
rwrist 33.551
rhand -21.2062 16.8495
rfingers 7.12502
rthumb 5.17525 -13.0673
lclavicle 1.03368e-014 -1.74931e-014
lhumerus -33.4168 40.1288 70.3356
lradius 19.8576
lwrist -36.1308
lhand -10.318 -7.37136
lfingers 7.12502
lthumb 15.6774 22.0135
rfemur 19.4516 -1.96224 21.223
rtibia 32.5013
rfoot -12.1615 6.65743
rtoes -9.4192
lfemur -24.9654 -7.35161 -13.2098
ltibia 37.4087
lfoot -4.13807 5.70242
ltoes -6.46475
